<svg xmlns="http://www.w3.org/2000/svg" viewBox="0 0 576 105.5"><defs><style>.cls-1{fill:#fff;}</style></defs><g id="圖層_2" data-name="圖層 2"><g id="Layer_1" data-name="Layer 1"><path class="cls-1" d="M380.6,43.6c-1.4,1.6-3.9,3.3-8.2,3.3-6.5,0-11.5-4.6-11.5-11.6s5-11.6,11.5-11.6a11.33,11.33,0,0,1,8,3l-1.3,2.5a9,9,0,0,0-6.5-2.7c-4.8,0-8.4,3.5-8.4,8.8s3.5,8.8,8.4,8.8a8.84,8.84,0,0,0,6.7-2.7Z"/><path class="cls-1" d="M390.3,46.9a7.83,7.83,0,0,1-8.2-8,8.2,8.2,0,0,1,16.4,0A7.83,7.83,0,0,1,390.3,46.9Zm0-13.6c-3.1,0-5,2.4-5,5.4s1.9,5.5,5,5.5,5-2.4,5-5.5S393.4,33.3,390.3,33.3Z"/><path class="cls-1" d="M415.2,46.5H412V37.9c0-2.6-.5-4.6-3.2-4.6-2.9,0-4,2.4-4,5.4v7.8h-3.1V31.1h3.1v2.4h.1a5.26,5.26,0,0,1,4.7-2.7c4.4,0,5.5,2.9,5.5,6.6v9.1Z"/><path class="cls-1" d="M428.2,45.5a6.53,6.53,0,0,1-4.3,1.4,7.37,7.37,0,0,1-6-2.8l1.5-1.8a6.47,6.47,0,0,0,4.6,2.2c1.4,0,3-.5,3-2.2s-2.4-2.2-3.5-2.6a15.64,15.64,0,0,1-2.1-.8,3.94,3.94,0,0,1-2.4-3.7c0-2.9,2.5-4.4,5.2-4.4a7.08,7.08,0,0,1,5.3,2l-1.3,1.9a5.86,5.86,0,0,0-3.9-1.7c-1.5,0-2.5.6-2.5,1.9s1.5,1.8,3,2.3c.8.3,1.4.5,2.1.7a10.81,10.81,0,0,1,1.8,1.1,3.93,3.93,0,0,1,1.2,2.9A5.14,5.14,0,0,1,428.2,45.5Z"/><path class="cls-1" d="M446.8,39.6H434.9c.2,3.1,2.1,4.9,5,4.9a8.48,8.48,0,0,0,5.1-1.8l1.3,1.8c-.2.2-2.2,2.4-6.8,2.4s-7.7-3.2-7.7-8.1a7.62,7.62,0,0,1,7.8-8,7.06,7.06,0,0,1,7.3,7.4A13.8,13.8,0,0,1,446.8,39.6ZM444,37.5a4.43,4.43,0,0,0-4.5-4.4,4.6,4.6,0,0,0-4.6,4.4Z"/><path class="cls-1" d="M451.7,27.9a1.9,1.9,0,1,1,2-1.9A1.87,1.87,0,0,1,451.7,27.9Zm1.6,18.6h-3.1V31.1h3.1Z"/><path class="cls-1" d="M460.9,46.5h-3.1V24.1h3.1Z"/><path class="cls-1" d="M486.8,46.5h-3V44.1h-.1a6.26,6.26,0,0,1-5.4,2.8c-4.6,0-7.5-3.5-7.5-8.1s2.9-8,7.5-8a6.27,6.27,0,0,1,5.4,2.7h.1V24.1h3.1V46.5Zm-7.9-13.2c-3.1,0-4.9,2.3-4.9,5.4s1.8,5.5,4.9,5.5,4.9-2.4,4.9-5.5S482,33.3,478.9,33.3Z"/><path class="cls-1" d="M505.3,39.6H493.4c.2,3.1,2.1,4.9,5,4.9a8.48,8.48,0,0,0,5.1-1.8l1.3,1.8c-.2.2-2.2,2.4-6.8,2.4s-7.7-3.2-7.7-8.1a7.62,7.62,0,0,1,7.8-8,7.06,7.06,0,0,1,7.3,7.4A13.8,13.8,0,0,1,505.3,39.6Zm-2.8-2.1a4.43,4.43,0,0,0-4.5-4.4,4.6,4.6,0,0,0-4.6,4.4Z"/><path class="cls-1" d="M517.3,45.5a6.53,6.53,0,0,1-4.3,1.4,7.37,7.37,0,0,1-6-2.8l1.5-1.8a6.47,6.47,0,0,0,4.6,2.2c1.4,0,3-.5,3-2.2s-2.4-2.2-3.5-2.6a15.64,15.64,0,0,1-2.1-.8,3.94,3.94,0,0,1-2.4-3.7c0-2.9,2.5-4.4,5.2-4.4a7.08,7.08,0,0,1,5.3,2l-1.3,1.9a5.86,5.86,0,0,0-3.9-1.7c-1.5,0-2.5.6-2.5,1.9s1.5,1.8,3,2.3c.8.3,1.4.5,2.1.7a10.81,10.81,0,0,1,1.8,1.1,3.93,3.93,0,0,1,1.2,2.9A4.77,4.77,0,0,1,517.3,45.5Z"/><path class="cls-1" d="M540.5,46.5h-3v-2a6.21,6.21,0,0,1-4.9,2.3c-2.9,0-5.3-1.8-5.3-4.8s2.5-4.6,6.1-4.7l4.1-.2v-.6c0-2.3-1.6-3.5-3.8-3.5a10.66,10.66,0,0,0-4.7,1.3l-.9-2.1a11.17,11.17,0,0,1,5.8-1.6c2.6,0,4.1.7,5.1,1.8a6.63,6.63,0,0,1,1.7,5v9.1Zm-3.1-7.4-3.6.2c-2.5.1-3.5,1.2-3.5,2.7s1.1,2.7,3.2,2.7a4.83,4.83,0,0,0,3.9-2.2V39.1Z"/><path class="cls-1" d="M552.9,34h-.1a4.64,4.64,0,0,0-1.7-.3,3.11,3.11,0,0,0-2.5,1.3,6.76,6.76,0,0,0-.9,3.9v7.7h-3.1V31.1h3.1v2.4h.1a3.92,3.92,0,0,1,3.8-2.7,3.86,3.86,0,0,1,1.6.3Z"/><path class="cls-1" d="M562.9,46.4a8,8,0,0,1-2.8.5,3.69,3.69,0,0,1-3.3-1.6c-.6-1-.8-2.2-.8-4.6V33.6h-2.3V31.1H556V26.5h3.1v4.6h3.7v2.5h-3.7v7a5.33,5.33,0,0,0,.4,2.8,1.6,1.6,0,0,0,1.6.8,3.55,3.55,0,0,0,1.6-.4Z"/><path class="cls-1" d="M574.3,45.5a6.53,6.53,0,0,1-4.3,1.4,7.37,7.37,0,0,1-6-2.8l1.5-1.8a6.47,6.47,0,0,0,4.6,2.2c1.4,0,3-.5,3-2.2s-2.4-2.2-3.5-2.6a15.64,15.64,0,0,1-2.1-.8,3.94,3.94,0,0,1-2.4-3.7c0-2.9,2.5-4.4,5.2-4.4a7.08,7.08,0,0,1,5.3,2l-1.3,1.9a5.86,5.86,0,0,0-3.9-1.7c-1.5,0-2.5.6-2.5,1.9s1.5,1.8,3,2.3c.8.3,1.4.5,2.1.7a10.81,10.81,0,0,1,1.8,1.1,3.93,3.93,0,0,1,1.2,2.9A4.77,4.77,0,0,1,574.3,45.5Z"/><path class="cls-1" d="M376.8,83.1h-3V80.6h-.1a6.26,6.26,0,0,1-5.4,2.8c-4.6,0-7.5-3.5-7.5-8.1s2.9-8,7.5-8a6.27,6.27,0,0,1,5.4,2.7h.1V60.6h3.1V83.1Zm-7.9-13.2c-3.1,0-4.9,2.3-4.9,5.4s1.8,5.5,4.9,5.5,4.9-2.4,4.9-5.5S372,69.9,368.9,69.9Z"/><path class="cls-1" d="M394.4,83.1h-3V80.9a5.35,5.35,0,0,1-4.8,2.6,5.13,5.13,0,0,1-4.3-1.8c-.8-1-1.1-2.6-1.1-4.8V67.6h3.1v9.1c0,2.1.5,4.1,3.2,4.1s3.8-2.3,3.8-4.9V67.6h3.1V83.1Z"/><path class="cls-1" d="M423.9,80.2c-1.4,1.6-3.9,3.3-8.2,3.3-6.5,0-11.5-4.6-11.5-11.6s5-11.6,11.5-11.6a11.33,11.33,0,0,1,8,3l-1.3,2.5a9,9,0,0,0-6.5-2.7c-4.9,0-8.4,3.5-8.4,8.8s3.5,8.8,8.4,8.8a8.84,8.84,0,0,0,6.7-2.7Z"/><path class="cls-1" d="M438.8,83.1h-3v-2a6.21,6.21,0,0,1-4.9,2.3c-2.9,0-5.3-1.8-5.3-4.8s2.5-4.6,6.1-4.7l4.1-.2v-.6c0-2.3-1.6-3.5-3.8-3.5a10.66,10.66,0,0,0-4.7,1.3l-.9-2.1a12.22,12.22,0,0,1,5.8-1.6c2.6,0,4.1.7,5.1,1.8a6.63,6.63,0,0,1,1.7,5v9.1Zm-3.1-7.4-3.6.2c-2.5.1-3.5,1.2-3.5,2.7s1.1,2.7,3.2,2.7a4.83,4.83,0,0,0,3.9-2.2V75.7Z"/><path class="cls-1" d="M456.3,83.1h-3.1V74.5c0-2.6-.5-4.6-3.2-4.6-2.9,0-4,2.4-4,5.4v7.8h-3.1V67.6H446V70h.1a5.26,5.26,0,0,1,4.7-2.7c4.4,0,5.5,2.9,5.5,6.6Z"/><path class="cls-1" d="M472.4,83.1h-3v-2a6.21,6.21,0,0,1-4.9,2.3c-2.9,0-5.3-1.8-5.3-4.8s2.5-4.6,6.1-4.7l4.1-.2v-.6c0-2.3-1.6-3.5-3.8-3.5a10.66,10.66,0,0,0-4.7,1.3l-.9-2.1a12.22,12.22,0,0,1,5.8-1.6c2.6,0,4.1.7,5.1,1.8a6.63,6.63,0,0,1,1.7,5v9.1Zm-3.1-7.4-3.6.2c-2.5.1-3.5,1.2-3.5,2.7s1.1,2.7,3.2,2.7a4.83,4.83,0,0,0,3.9-2.2V75.7Z"/><path class="cls-1" d="M491.4,83.1h-3V80.6h-.1a6.26,6.26,0,0,1-5.4,2.8c-4.6,0-7.5-3.5-7.5-8.1s2.9-8,7.5-8a6.27,6.27,0,0,1,5.4,2.7h.1V60.6h3.1V83.1Zm-7.9-13.2c-3.1,0-4.9,2.3-4.9,5.4s1.8,5.5,4.9,5.5,4.9-2.4,4.9-5.5S486.6,69.9,483.5,69.9Z"/><path class="cls-1" d="M507.9,83.1h-3v-2a6.21,6.21,0,0,1-4.9,2.3c-2.9,0-5.3-1.8-5.3-4.8s2.5-4.6,6-4.7l4.1-.2v-.6c0-2.3-1.6-3.5-3.8-3.5a10.66,10.66,0,0,0-4.7,1.3l-.9-2.1a12.22,12.22,0,0,1,5.8-1.6c2.6,0,4.1.7,5.1,1.8a6.63,6.63,0,0,1,1.7,5v9.1Zm-3.1-7.4-3.6.2c-2.5.1-3.5,1.2-3.5,2.7s1.1,2.7,3.2,2.7a4.83,4.83,0,0,0,3.9-2.2V75.7Z"/><path class="cls-1" d="M138.3,43.6c-1.4,1.6-3.9,3.3-8.2,3.3-6.5,0-11.5-4.6-11.5-11.6s5-11.6,11.5-11.6a11.33,11.33,0,0,1,8,3l-1.3,2.5a9,9,0,0,0-6.5-2.7c-4.8,0-8.4,3.5-8.4,8.8s3.5,8.8,8.4,8.8a8.84,8.84,0,0,0,6.7-2.7Z"/><path class="cls-1" d="M153.2,46.5h-3v-2a6.21,6.21,0,0,1-4.9,2.3c-2.9,0-5.3-1.8-5.3-4.8s2.5-4.6,6.1-4.7l4.1-.2v-.6c0-2.3-1.6-3.5-3.8-3.5a10.66,10.66,0,0,0-4.7,1.3l-.9-2.1a11.17,11.17,0,0,1,5.8-1.6c2.6,0,4.1.7,5.1,1.8a6.63,6.63,0,0,1,1.7,5v9.1Zm-3.1-7.4-3.6.2c-2.5.1-3.5,1.2-3.5,2.7s1.1,2.7,3.2,2.7a4.83,4.83,0,0,0,3.9-2.2Z"/><path class="cls-1" d="M170.6,46.5h-3.1V37.9c0-2.6-.5-4.6-3.2-4.6-2.9,0-4,2.4-4,5.4v7.8h-3.1V31.1h3.1v2.4h.1a5.26,5.26,0,0,1,4.7-2.7c4.4,0,5.5,2.9,5.5,6.6Z"/><path class="cls-1" d="M186.8,46.5h-3v-2a6.21,6.21,0,0,1-4.9,2.3c-2.9,0-5.3-1.8-5.3-4.8s2.5-4.6,6.1-4.7l4.1-.2v-.6c0-2.3-1.6-3.5-3.8-3.5a10.66,10.66,0,0,0-4.7,1.3l-.9-2.1a11.17,11.17,0,0,1,5.8-1.6c2.6,0,4.1.7,5.1,1.8a6.63,6.63,0,0,1,1.7,5v9.1Zm-3.1-7.4-3.6.2c-2.5.1-3.5,1.2-3.5,2.7s1.1,2.7,3.2,2.7a4.83,4.83,0,0,0,3.9-2.2Z"/><path class="cls-1" d="M205.8,46.5h-3V44.1h-.1a6.26,6.26,0,0,1-5.4,2.8c-4.6,0-7.5-3.5-7.5-8.1s2.9-8,7.5-8a6.27,6.27,0,0,1,5.4,2.7h.1V24.1h3.1V46.5Zm-7.9-13.2c-3.1,0-4.9,2.3-4.9,5.4s1.8,5.5,4.9,5.5,4.9-2.4,4.9-5.5S201,33.3,197.9,33.3Z"/><path class="cls-1" d="M222.2,46.5h-3v-2a6.21,6.21,0,0,1-4.9,2.3c-2.9,0-5.3-1.8-5.3-4.8s2.5-4.6,6.1-4.7l4.1-.2v-.6c0-2.3-1.6-3.5-3.8-3.5a10.66,10.66,0,0,0-4.7,1.3l-.9-2.1a11.17,11.17,0,0,1,5.8-1.6c2.6,0,4.1.7,5.1,1.8a6.63,6.63,0,0,1,1.7,5v9.1Zm-3.1-7.4-3.6.2c-2.5.1-3.5,1.2-3.5,2.7s1.1,2.7,3.2,2.7a4.83,4.83,0,0,0,3.9-2.2Z"/><path class="cls-1" d="M251.5,43.6c-1.4,1.6-3.9,3.3-8.2,3.3-6.5,0-11.5-4.6-11.5-11.6s5-11.6,11.5-11.6a11.33,11.33,0,0,1,8,3L250,29.2a9,9,0,0,0-6.5-2.7c-4.8,0-8.4,3.5-8.4,8.8s3.5,8.8,8.4,8.8a8.84,8.84,0,0,0,6.7-2.7Z"/><path class="cls-1" d="M261.2,46.9a7.83,7.83,0,0,1-8.2-8,8.2,8.2,0,0,1,16.4,0A7.83,7.83,0,0,1,261.2,46.9Zm0-13.6c-3.1,0-5,2.4-5,5.4s1.9,5.5,5,5.5,5-2.4,5-5.5S264.3,33.3,261.2,33.3Z"/><path class="cls-1" d="M285.7,46.5h-3V44.3a5.35,5.35,0,0,1-4.8,2.6c-2.2,0-3.5-.7-4.3-1.8s-1.1-2.6-1.1-4.8V31.1h3.1v9.1c0,2.1.5,4.1,3.2,4.1s3.8-2.3,3.8-4.9V31.1h3.1V46.5Z"/><path class="cls-1" d="M303.5,46.5h-3.1V37.9c0-2.6-.5-4.6-3.2-4.6-2.9,0-4,2.4-4,5.4v7.8H290V31.1h3.1v2.4h.1a5.26,5.26,0,0,1,4.7-2.7c4.4,0,5.5,2.9,5.5,6.6v9.1Z"/><path class="cls-1" d="M320.6,44.6c-.5.5-2,2.3-6.2,2.3a7.7,7.7,0,0,1-7.8-8.1,7.75,7.75,0,0,1,7.9-8c4.1,0,5.8,2,6,2.2l-1.1,2.3a6.14,6.14,0,0,0-4.6-1.9,5,5,0,0,0-5,5.3c0,3.3,2,5.5,5,5.5a6.49,6.49,0,0,0,4.7-2Z"/><path class="cls-1" d="M324.8,27.9a1.9,1.9,0,1,1,2-1.9A1.87,1.87,0,0,1,324.8,27.9Zm1.6,18.6h-3.1V31.1h3.1Z"/><path class="cls-1" d="M334,46.5h-3.1V24.1H334Z"/><path class="cls-1" d="M127.4,63a6.54,6.54,0,0,0-1.8-.3c-2,0-2.4,1.5-2.4,3.3v1.7h3.7v2.5h-3.7V83.1h-3.1V70.2h-2.2V67.7h2.2V66.1a6.79,6.79,0,0,1,1-4.1,4.82,4.82,0,0,1,3.7-1.7,7.24,7.24,0,0,1,2.7.4Z"/><path class="cls-1" d="M135.6,83.5a7.83,7.83,0,0,1-8.2-8,8.2,8.2,0,1,1,8.2,8Zm0-13.6c-3.1,0-5,2.4-5,5.4s1.9,5.5,5,5.5,5-2.4,5-5.5S138.7,69.9,135.6,69.9Z"/><path class="cls-1" d="M155.4,70.6h-.1a4.64,4.64,0,0,0-1.7-.3,3.11,3.11,0,0,0-2.5,1.3,6.76,6.76,0,0,0-.9,3.9v7.7H147V67.7h3.1v2.4h.1a3.92,3.92,0,0,1,3.8-2.7,3.86,3.86,0,0,1,1.6.3Z"/><path class="cls-1" d="M171.9,83a8,8,0,0,1-2.8.5,3.69,3.69,0,0,1-3.3-1.6c-.6-1-.8-2.2-.8-4.6V70.2h-2.3V67.7H165V63.1h3.1v4.6h3.7v2.5h-3.7v7a5.33,5.33,0,0,0,.4,2.8,1.6,1.6,0,0,0,1.6.8,3.55,3.55,0,0,0,1.6-.4Z"/><path class="cls-1" d="M188.1,83.1H185V74.3c0-2.2-.4-4.4-3.2-4.4s-4,2.4-4,5.5V83h-3.1V60.6h3.1V70h.1a5.31,5.31,0,0,1,4.8-2.7c4.5,0,5.5,2.9,5.5,6.5v9.3Z"/><path class="cls-1" d="M206.3,76.2H194.4c.2,3.1,2.1,4.9,5,4.9a8.48,8.48,0,0,0,5.1-1.8l1.3,1.8c-.2.2-2.2,2.4-6.8,2.4s-7.7-3.2-7.7-8.1a7.62,7.62,0,0,1,7.8-8,7.06,7.06,0,0,1,7.3,7.4A13.8,13.8,0,0,1,206.3,76.2Zm-2.8-2.1a4.43,4.43,0,0,0-4.5-4.4,4.6,4.6,0,0,0-4.6,4.4Z"/><path class="cls-1" d="M235,83.1h-3.5l-2.3-5.9h-9.6l-2.3,5.9H214l9.1-22.5h2.8Zm-6.7-8.4-3.9-10.1-3.9,10.1Z"/><path class="cls-1" d="M245.6,70.6h-.1a4.64,4.64,0,0,0-1.7-.3,3.11,3.11,0,0,0-2.5,1.3,6.76,6.76,0,0,0-.9,3.9v7.7h-3.1V67.7h3.1v2.4h.1a3.92,3.92,0,0,1,3.8-2.7,3.86,3.86,0,0,1,1.6.3Z"/><path class="cls-1" d="M255.6,83a8,8,0,0,1-2.8.5,3.69,3.69,0,0,1-3.3-1.6c-.6-1-.8-2.2-.8-4.6V70.2h-2.3V67.7h2.3V63.1h3.1v4.6h3.7v2.5h-3.7v7a5.33,5.33,0,0,0,.4,2.8,1.6,1.6,0,0,0,1.6.8,3.55,3.55,0,0,0,1.6-.4Z"/><path class="cls-1" d="M267,82.1a6.53,6.53,0,0,1-4.3,1.4,7.37,7.37,0,0,1-6-2.8l1.5-1.8a6.47,6.47,0,0,0,4.6,2.2c1.4,0,3-.5,3-2.2s-2.4-2.2-3.5-2.6a15.64,15.64,0,0,1-2.1-.8,3.94,3.94,0,0,1-2.4-3.7c0-2.9,2.5-4.4,5.2-4.4a7.08,7.08,0,0,1,5.3,2L267,71.3a5.86,5.86,0,0,0-3.9-1.7c-1.5,0-2.5.6-2.5,1.9s1.5,1.8,3,2.3c.8.3,1.4.5,2.1.7a10.81,10.81,0,0,1,1.8,1.1,3.93,3.93,0,0,1,1.2,2.9A4.77,4.77,0,0,1,267,82.1Z"/><path class="cls-1" d="M93,84c-5-4.9-19.5-9.1-34.4-10a6.53,6.53,0,0,0-2.2,2.6c12.5.6,24.6,4.1,29,8.1,4,3.2,3.4,7.6-1.3,10.6-6.8,4.8-20.9,7-36.2,6.9-15.3.1-29.4-2.1-36.2-6.9-4.7-3-5.3-7.4-1.2-10.6,4.5-4,16.5-7.6,29-8.1A8.47,8.47,0,0,0,37.3,74C22.4,74.9,8,79.1,2.9,84c-6.8,6.2-1.4,13.2,13.5,17.6,8.3,2.5,20,3.9,31.5,3.9s23.2-1.4,31.5-3.9C94.3,97.2,99.8,90.2,93,84Z"/><path class="cls-1" d="M85,33.4c-.3-4.1-3.6-7.3-7.6-8.8a7.38,7.38,0,0,0,.7-7.6c-1.9-4.4-7-5.8-10.1-5.6-4.3.3-6.9,2.1-11.5,5.6-1.1-.8-3.2-2.4-4.2-3.2h0a40.33,40.33,0,0,1,6.4-4.3,15,15,0,0,1,5.2-1.9A21,21,0,0,0,47.8,0h0A21,21,0,0,0,31.7,7.6a15,15,0,0,1,5.2,1.9,40.33,40.33,0,0,1,6.4,4.3c-.9.7-3.1,2.3-4.2,3.2-4.6-3.5-7.2-5.3-11.5-5.6-3.1-.2-8.2,1.2-10.1,5.6a7.38,7.38,0,0,0,.7,7.6c-4,1.5-7.3,4.7-7.6,8.8s2.1,7.9,6.4,9.7a8,8,0,0,0-1.8,4.8c0,4,3.6,9.4,11.2,9.2,5.7-.2,7.9-1.9,12.4-5.4.3.4,3.7,5.9,3.7,15.4,0,0,.5,7.3-3.1,25.1h0c0,1,3.7,1.7,8.3,1.7s8.3-.8,8.3-1.7h0c-3.6-17.8-3.1-25.1-3.1-25.1,0-9.6,3.5-15,3.7-15.4,4.5,3.5,6.7,5.2,12.4,5.4,7.6.2,11.2-5.2,11.2-9.2a8.21,8.21,0,0,0-1.8-4.8C82.9,41.3,85.3,37.5,85,33.4ZM67.9,17.1c4-.2,5.5,2.2,5.2,3.8-.4,2-2.9,3.5-5.2,3.2s-4-1.4-6.7-3.6C63,19.1,65.3,17.3,67.9,17.1ZM56.7,24c1.3,1,2.5,1.9,3.5,2.6a14.31,14.31,0,0,0,1.5,1.1c-.7.5-1.2.9-2,1.5-.6.4-1.4,1.1-2.3,1.7-1.4-1-3-2.3-4.9-3.7C53.8,26.2,55.1,25.1,56.7,24Zm-4.6-3.5c-1.3,1-2.5,1.9-4.1,3.2h0c-1.6-1.2-2.8-2.2-4.1-3.2,1-.8,2.3-1.8,4-3.1l.1-.1.1.1C49.8,18.7,51,19.7,52.1,20.5ZM42.2,6.6S43.6,5,47.8,5s5.6,1.6,5.6,1.6a25.78,25.78,0,0,0-2.6,1.7c-2,1.4-2.9,2.2-3,2.2a23.59,23.59,0,0,0-3-2.2A25.78,25.78,0,0,0,42.2,6.6Zm5.5,24.2.2-.2.2.2c1.5,1.2,3.1,2.3,4.8,3.6-1,.7-1.8,1.3-2.5,1.9s-1.5,1.1-2.3,1.7l-.1.1-.1-.1c-.8-.6-1.6-1.2-2.3-1.7s-1.5-1.2-2.5-1.9C44.6,33.1,46.2,32,47.7,30.8ZM39.1,24c1.5,1.1,2.9,2.2,4.2,3.2-1.9,1.5-3.6,2.7-5,3.7-.8-.6-1.7-1.3-2.3-1.7-.8-.6-1.3-1-2-1.5a14.31,14.31,0,0,0,1.5-1.1C36.6,25.9,37.9,24.9,39.1,24ZM27.9,17.1c2.6.1,4.9,2,6.7,3.4-2.8,2.2-4.5,3.4-6.7,3.6s-4.8-1.2-5.2-3.2C22.4,19.3,23.9,16.9,27.9,17.1ZM16.3,34.5c-.1-2.1,1.4-5.1,7-5.4,3.8-.2,6.4,2,10.6,5.1-3.3,2.5-5.9,4.7-10.7,5C19.4,39.5,16.4,36.7,16.3,34.5ZM27,51.8c-4,.2-6.4-1.8-6.2-4,.1-1.7,3.9-5.7,11.8-2.2a14.15,14.15,0,0,1,2.9,1.8C31.6,50.4,30.1,51.7,27,51.8Zm12.8-7.6a20,20,0,0,0-5.2-3.6,46.14,46.14,0,0,0,3.8-2.8l.1-.1c1.8,1.3,3.5,2.6,5,3.7C42.2,42.4,41,43.3,39.8,44.2Zm8.2,15-.1.5-.1-.5a33.21,33.21,0,0,0-4-10.4c1.4-1.1,2.7-2.1,4.1-3.1,1.3,1,2.6,2,4.1,3.1A35.84,35.84,0,0,0,48,59.2Zm8-15c-1.2-.9-2.4-1.8-3.7-2.8,1.5-1.1,3.2-2.4,4.9-3.7.1,0,.1,0,.1.1a30.77,30.77,0,0,0,3.8,2.8A21.22,21.22,0,0,0,56,44.2Zm12.8,7.6c-3.1-.1-4.5-1.4-8.5-4.3a10.84,10.84,0,0,1,2.9-1.8c7.9-3.6,11.7.4,11.8,2.2C75.2,50,72.8,52,68.8,51.8Zm3.8-12.5c-4.8-.3-7.3-2.5-10.7-5,4.1-3.1,6.8-5.3,10.6-5.1,5.6.3,7.1,3.3,7,5.4S76.4,39.5,72.6,39.3Z"/></g></g></svg>