<?xml version="1.0" encoding="utf-8"?>
<!-- Generator: Adobe Illustrator 25.0.0, SVG Export Plug-In . SVG Version: 6.00 Build 0)  -->
<svg version="1.1" id="圖層_1" xmlns="http://www.w3.org/2000/svg" xmlns:xlink="http://www.w3.org/1999/xlink" x="0px" y="0px"
	 viewBox="0 0 258.11 226.49" style="enable-background:new 0 0 258.11 226.49;" xml:space="preserve">
<style type="text/css">
	.st0{display:none;opacity:0.36;}
	.st1{display:inline;fill:#040000;stroke:#231815;stroke-miterlimit:10;}
	.st2{display:none;}
	.st3{display:inline;fill:#040000;stroke:#1D2087;stroke-miterlimit:10;}
	.st4{fill:#040000;}
	.st5{display:inline;fill:#040000;}
	.st6{display:inline;opacity:0.36;}
	.st7{fill:#040000;stroke:#231815;stroke-miterlimit:10;}
	.st8{display:inline;}
	.st9{fill:#040000;stroke:#1D2087;stroke-miterlimit:10;}
	.st10{fill:#C30D23;}
</style>
<g id="Box6_6_">
	<g id="Box5_7_">
		<g id="Box3_7_">
			<g id="底線_14_" class="st0">
				<polygon class="st1" points="221.54,164.5 221.54,66.9 137.01,18.09 52.48,66.9 52.48,164.5 137.01,213.31 				"/>
				<line class="st1" x1="221.54" y1="66.9" x2="52.48" y2="164.5"/>
				<line class="st1" x1="221.54" y1="164.5" x2="52.48" y2="66.9"/>
				<line class="st1" x1="137.01" y1="18.09" x2="137.01" y2="213.31"/>
				<line class="st1" x1="179.27" y1="42.49" x2="52.48" y2="115.7"/>
				<line class="st1" x1="179.27" y1="188.9" x2="52.48" y2="115.7"/>
				<line class="st1" x1="179.27" y1="42.49" x2="179.27" y2="188.9"/>
				<line class="st1" x1="221.54" y1="115.7" x2="94.74" y2="42.49"/>
				<line class="st1" x1="93.08" y1="188.9" x2="221.54" y2="115.7"/>
				<line class="st1" x1="94.74" y1="42.49" x2="93.08" y2="188.9"/>
			</g>
			<g class="st2">
				<line class="st3" x1="52.48" y1="66.9" x2="137.01" y2="115.7"/>
				<line class="st3" x1="221.54" y1="66.9" x2="137.01" y2="115.7"/>
				<line class="st3" x1="137.01" y1="213.31" x2="137.01" y2="115.7"/>
				<line class="st3" x1="52.48" y1="66.9" x2="52.48" y2="164.5"/>
				<line class="st3" x1="137.01" y1="213.31" x2="52.48" y2="164.5"/>
				<line class="st3" x1="221.54" y1="164.5" x2="137.01" y2="213.31"/>
				<line class="st3" x1="221.54" y1="66.9" x2="221.54" y2="164.5"/>
				<line class="st3" x1="137.01" y1="18.09" x2="52.48" y2="66.9"/>
				<line class="st3" x1="221.54" y1="66.9" x2="137.01" y2="18.09"/>
			</g>
			<g>
				<g>
					<path class="st4" d="M64.27,69.39l-7.97-4.6l80.89-46.7l7.97,4.6L64.27,69.39z"/>
					<path class="st4" d="M164.15,46.01l-8.78-5.07L85.17,81.46l-7.93-4.58l70.19-40.53l-8.78-5.07l10.7-6.18l25.5,14.72
						L164.15,46.01z"/>
					<path class="st4" d="M187.62,47.2l-29.99,11.93l-5.11-2.95l27.1-13.6L187.62,47.2z"/>
					<path class="st4" d="M144.59,107.23c-4.93,2.85-9,3.34-12.23,1.48l-16.04-9.26c-3.2-1.85-2.34-4.19,2.59-7.04l19.28-11.13
						l7.97,4.6l-16.49,9.52l9.74,5.62l15.87-9.16l6.98-22.47c0.53-1.64,2.11-3.22,4.72-4.73l17.99-10.39
						c4.96-2.86,9.04-3.37,12.24-1.53L213.25,62c3.22,1.86,2.39,4.2-2.51,7.03l-18.09,10.44l-7.97-4.6l15.25-8.8l-9.74-5.62
						l-14.63,8.45l-6.88,22.41c-0.5,1.62-2.11,3.22-4.83,4.79L144.59,107.23z"/>
				</g>
			</g>
			<g>
				<path class="st4" d="M161.99,190.01c0.02,5.91-1.43,9.7-4.36,11.39l-19.16,11.06l-0.45-97.35l19.14-11.05
					c2.86-1.65,4.3,0.53,4.31,6.53l0.08,25.16c0.01,3.33-0.49,6.2-1.51,8.62c-0.14,0.33-1.39,2.65-3.74,6.96
					c2.45,1.62,3.75,2.54,3.89,2.74c1.11,1.31,1.68,3.67,1.69,7.07L161.99,190.01z M154.41,141.7l-0.09-23.65l-9.03,5.21l0.12,28.63
					l5.54-3.2L154.41,141.7z M154.77,190.82l-0.1-27.69l-3.55-2.69l-5.66,3.27l0.14,32.4L154.77,190.82z"/>
				<path class="st4" d="M191.84,172.77c0.01,5.91-1.44,9.71-4.34,11.38l-15.58,8.99c-2.84,1.64-4.27-0.49-4.29-6.4l-0.24-79.57
					c-0.02-6.01,1.4-9.83,4.26-11.48l15.66-9.04c2.92-1.68,4.38,0.48,4.39,6.49L191.84,172.77z M184.66,173.32l-0.15-72.45
					l-9.89,5.71l0.19,72.43L184.66,173.32z"/>
				<path class="st4" d="M221.54,164.5l-7.76,4.48l-5.3-31.19l-5.28,37.29l-7.63,4.41l0-0.5l8.91-54.47
					c-5.68-28.38-8.51-42.7-8.49-42.88l7.71-4.45l4.83,29.13l4.82-34.7l7.65-4.41l0,0.56l-8.42,51.71L221.54,164.5z"/>
			</g>
			<g class="st2">
				<path class="st5" d="M68.8,173.97l-4.22-2.43l-6.44-54.65c0.18,3.26,0.25,5.72,0.2,7.42l-1.17,42.97l-4.69-2.71V66.9l6.57,3.8
					l7.27,73.99c-0.06-2.65-0.04-4.74,0.06-6.24l4.22-61.09l7.31,4.22L68.8,173.97z"/>
				<path class="st5" d="M90.14,180.35c-0.83,3.51-2.21,4.65-4.15,3.53l-10.45-6.02c-1.91-1.1-2.64-3.45-2.18-7.18l9.04-73.19
					c1.01-8.14,3.02-11.57,5.99-9.85l16.28,9.4c3.03,1.75,3.6,6.66,1.78,14.33L90.14,180.35z M85.62,175.22l12.81-63.57l-9.6-5.54
					l-10.13,65.12L85.62,175.22z"/>
				<path class="st5" d="M131.21,131.07l-7.69-4.44l-22.05,66.15l-4.79-2.76l19.9-67.4l-7.7-4.44l4.16-16.33l23.98,13.85
					L131.21,131.07z"/>
			</g>
			<g class="st2">
				<path class="st5" d="M135.29,212.32l-8.44-4.87l1.07-30.38l-7.8-4.61l-7.51,26.78l-8.59-4.96l0.16-0.49l24.44-60.67l3,1.84
					L135.29,212.32z M128.34,164.45l0.83-24.1l-5.96,21.03L128.34,164.45z"/>
			</g>
		</g>
		<g class="st2">
			<g id="底線_13_" class="st6">
				<polygon class="st7" points="222.56,164.5 222.56,66.9 138.03,18.09 53.5,66.9 53.5,164.5 138.03,213.31 				"/>
				<line class="st7" x1="222.56" y1="66.9" x2="53.5" y2="164.5"/>
				<line class="st7" x1="222.56" y1="164.5" x2="53.5" y2="66.9"/>
				<line class="st7" x1="138.03" y1="18.09" x2="138.03" y2="213.31"/>
				<line class="st7" x1="180.29" y1="42.49" x2="53.5" y2="115.7"/>
				<line class="st7" x1="180.29" y1="188.9" x2="53.5" y2="115.7"/>
				<line class="st7" x1="180.29" y1="42.49" x2="180.29" y2="188.9"/>
				<line class="st7" x1="222.56" y1="115.7" x2="95.76" y2="42.49"/>
				<line class="st7" x1="94.1" y1="188.9" x2="222.56" y2="115.7"/>
				<line class="st7" x1="95.76" y1="42.49" x2="94.1" y2="188.9"/>
			</g>
			<g class="st8">
				<line class="st9" x1="52.48" y1="67.48" x2="137.01" y2="116.29"/>
				<line class="st9" x1="221.54" y1="67.48" x2="137.01" y2="116.29"/>
				<line class="st9" x1="137.01" y1="213.89" x2="137.01" y2="116.29"/>
				<line class="st9" x1="52.48" y1="67.48" x2="52.48" y2="165.09"/>
				<line class="st9" x1="137.01" y1="213.89" x2="52.48" y2="165.09"/>
				<line class="st9" x1="221.54" y1="165.09" x2="137.01" y2="213.89"/>
				<line class="st9" x1="221.54" y1="67.48" x2="221.54" y2="165.09"/>
				<line class="st9" x1="137.01" y1="18.68" x2="52.48" y2="67.48"/>
				<line class="st9" x1="221.54" y1="67.48" x2="137.01" y2="18.68"/>
			</g>
		</g>
	</g>
	<g>
		<path class="st4" d="M71.15,175.65l-4.7-2.73l-8.93-66.52c0.24,3.12,0.37,5.53,0.38,7.23l0.3,54.49l-5.22-3.03l-0.5-97.48
			l4.67,2.69l8.9,64.95c-0.25-3.13-0.38-5.55-0.39-7.25l-0.31-52.97l5.19,3L71.15,175.65z"/>
		<path class="st4" d="M93.5,179.69c0.05,5.99-1.02,8.35-3.19,7.09l-11.66-6.77c-2.13-1.24-3.21-4.84-3.25-10.83l-0.52-79.74
			c-0.04-5.96,1-8.32,3.11-7.1l11.59,6.69c2.16,1.25,3.26,4.85,3.31,10.82L93.5,179.69z M88.11,172.93l-0.54-72.63l-7.33-4.23
			l0.5,72.59L88.11,172.93z"/>
		<path class="st4" d="M112.76,115.22l-5.9-3.41l0.74,85l-5.36-3.11l-0.71-84.97l-5.9-3.41l-0.1-12.86l17.11,9.88L112.76,115.22z"/>
		<path class="st10" d="M134.52,212.46l-5.34-3.1l-1.27-19.33l-6.74-3.91l-0.9,18.06l-5.32-3.09l0-0.25l6.03-93.8l5.63,3.25
			L134.52,212.46z M127.02,176.96l-3.05-45.7l-2.21,42.65L127.02,176.96z"/>
	</g>
</g>
</svg>
