<?xml version="1.0" encoding="utf-8"?>
<!-- Generator: Adobe Illustrator 25.0.0, SVG Export Plug-In . SVG Version: 6.00 Build 0)  -->
<svg version="1.1" id="圖層_1" xmlns="http://www.w3.org/2000/svg" xmlns:xlink="http://www.w3.org/1999/xlink" x="0px" y="0px"
	 viewBox="0 0 169.1 194.4" style="enable-background:new 0 0 169.1 194.4;" xml:space="preserve">
<style type="text/css">
	.st0{opacity:0.3;}
	.st1{fill:#FFFFFF;}
	.st2{fill:#C30D23;}
</style>
<g id="圖層_2_1_" class="st0">
	<g id="圖層_1-2">
		<g id="Box6">
			<g id="Box5">
				<g id="Box3">
					<path class="st1" d="M11.8,51.3l-8-4.6L84.7,0l8,4.6L11.8,51.3z"/>
					<path class="st1" d="M111.7,27.9l-8.8-5.1L32.7,63.4l-7.9-4.6L95,18.3l-8.8-5.1L96.9,7l25.5,14.7L111.7,27.9z"/>
					<path class="st1" d="M135.1,29.1l-30,11.9l-5.2-2.9l27.1-13.6L135.1,29.1z"/>
					<path class="st1" d="M92.1,89.1c-4.9,2.8-9,3.3-12.2,1.5l-16-9.2c-3.2-1.8-2.3-4.2,2.6-7l19.2-11.2l8,4.6l-16.5,9.5l9.7,5.6
						l15.9-9.2l7-22.5c0.5-1.7,2.1-3.2,4.7-4.7l18-10.4c5-2.9,9.1-3.4,12.2-1.5l16,9.3c3.2,1.9,2.4,4.2-2.5,7l-18.1,10.5l-8-4.6
						l15.3-8.8l-9.7-5.6l-14.6,8.5l-6.9,22.4c-0.5,1.6-2.1,3.2-4.8,4.8L92.1,89.1z"/>
					<path class="st1" d="M109.5,171.9c0,5.9-1.5,9.7-4.4,11.4L86,194.4L85.6,97l19.1-11c2.9-1.7,4.3,0.5,4.3,6.5l0.1,25.2
						c0.1,2.9-0.4,5.9-1.5,8.6c-0.2,0.3-1.4,2.7-3.7,7c1.4,0.8,2.7,1.7,3.9,2.7c1.1,1.3,1.7,3.7,1.7,7.1L109.5,171.9z M101.9,123.6
						l-0.1-23.6l-9,5.2l0.1,28.6l5.5-3.2L101.9,123.6z M102.3,172.7l-0.1-27.7l-3.6-2.7l-5.6,3.3l0.1,32.4L102.3,172.7z"/>
					<path class="st1" d="M139.4,154.7c0,5.9-1.4,9.7-4.3,11.4l-15.6,9c-2.8,1.6-4.3-0.5-4.3-6.4l-0.2-79.6c0-6,1.4-9.8,4.3-11.5
						l15.7-9c2.9-1.7,4.4,0.5,4.4,6.5L139.4,154.7z M132.2,155.2L132,82.8l-9.9,5.7l0.2,72.4L132.2,155.2z"/>
					<path class="st1" d="M169.1,146.4l-7.8,4.5l-5.3-31.2l-5.3,37.3l-7.6,4.4v-0.5l8.9-54.5c-5.7-28.4-8.5-42.7-8.5-42.9l7.7-4.5
						l4.8,29.1l4.8-34.7l7.6-4.4v0.6l-8.4,51.7L169.1,146.4z"/>
				</g>
			</g>
			<path class="st1" d="M18.7,157.6l-4.7-2.7L5,88.3c0.2,3.1,0.4,5.5,0.4,7.2L5.7,150l-5.2-3L0,49.5l4.7,2.7l8.9,64.9
				c-0.2-3.1-0.4-5.5-0.4-7.2l-0.3-53l5.2,3L18.7,157.6z"/>
			<path class="st1" d="M41,161.6c0,6-1,8.4-3.2,7.1l-11.7-6.8c-2.1-1.2-3.2-4.8-3.2-10.8l-0.5-79.7c0-6,1-8.3,3.1-7.1l11.6,6.7
				c2.2,1.3,3.3,4.9,3.3,10.8L41,161.6z M35.6,154.8l-0.5-72.6L27.8,78l0.5,72.6L35.6,154.8z"/>
			<path class="st1" d="M60.3,97.1l-5.9-3.4l0.7,85l-5.3-3.1l-0.7-85l-5.9-3.4L43,74.3l17.1,9.9L60.3,97.1z"/>
			<path class="st2" d="M82,194.4l-5.3-3.1l-1.3-19.3l-6.7-3.9l-0.9,18.1l-5.3-3.1v-0.2l6-93.8l5.6,3.2L82,194.4z M74.5,158.9
				l-3.1-45.7l-2.2,42.6L74.5,158.9z"/>
		</g>
	</g>
</g>
</svg>
