<svg xmlns="http://www.w3.org/2000/svg" viewBox="0 0 169.06 194.37"><defs><style>.cls-1{fill:#fff;}.cls-2{fill:#c30d23;}</style></defs><g id="圖層_2" data-name="圖層 2"><g id="圖層_1-2" data-name="圖層 1"><g id="Box6"><g id="Box5"><g id="Box3"><path class="cls-1" d="M11.79,51.3l-8-4.6L84.72,0l8,4.6Z"/><path class="cls-1" d="M111.67,27.92l-8.78-5.07L32.69,63.37l-7.93-4.58L95,18.27l-8.78-5.08L96.87,7l25.5,14.72Z"/><path class="cls-1" d="M135.14,29.11,105.15,41,100,38.09l27.1-13.6Z"/><path class="cls-1" d="M92.11,89.14q-7.39,4.26-12.23,1.47l-16-9.25q-4.8-2.77,2.59-7L85.72,63.19l8,4.6L77.19,77.3l9.74,5.63,15.87-9.16,7-22.47c.53-1.65,2.11-3.22,4.73-4.74l18-10.38q7.45-4.3,12.25-1.53l16,9.26q4.83,2.79-2.5,7L140.18,61.38l-8-4.59L147.46,48l-9.74-5.62-14.63,8.45-6.88,22.4q-.73,2.45-4.82,4.8Z"/><path class="cls-1" d="M109.52,171.91q0,8.86-4.36,11.39L86,194.37,85.55,97l19.14-11Q109,83.49,109,92.5l.08,25.16a21.93,21.93,0,0,1-1.51,8.62c-.15.33-1.39,2.65-3.74,7a34.86,34.86,0,0,1,3.89,2.74q1.68,2,1.69,7.07Zm-7.59-48.3L101.84,100l-9,5.21.12,28.63,5.54-3.2Zm.36,49.12-.1-27.69-3.55-2.69L93,145.62l.14,32.4Z"/><path class="cls-1" d="M139.36,154.68q0,8.87-4.34,11.38l-15.57,9q-4.26,2.46-4.29-6.4l-.24-79.57q0-9,4.26-11.48l15.66-9q4.38-2.53,4.39,6.49Zm-7.18.55L132,82.78l-9.89,5.71.19,72.42Z"/><path class="cls-1" d="M169.06,146.41l-7.76,4.48L156,119.7,150.72,157l-7.63,4.4v-.49L152,106.44q-8.52-42.57-8.5-42.88l7.71-4.45L156,88.24l4.82-34.7,7.64-4.42v.57l-8.42,51.7Z"/></g></g><path class="cls-1" d="M18.67,157.56,14,154.82,5,88.31c.25,3.12.37,5.53.38,7.23L5.72,150,.5,147,0,49.52l4.67,2.69,8.89,64.95q-.36-4.69-.38-7.25l-.32-53,5.2,3Z"/><path class="cls-1" d="M41,161.59q.06,9-3.2,7.1l-11.66-6.78q-3.18-1.84-3.25-10.82L22.4,71.35q-.06-8.94,3.11-7.11L37.1,70.93q3.24,1.88,3.31,10.82Zm-5.4-6.75L35.09,82.2,27.76,78l.51,72.59Z"/><path class="cls-1" d="M60.28,97.13l-5.9-3.41.73,85-5.35-3.11-.71-85-5.89-3.4-.11-12.87,17.11,9.88Z"/><path class="cls-2" d="M82,194.37l-5.34-3.11-1.27-19.33L68.69,168l-.9,18.07L62.47,183v-.25l6-93.81,5.62,3.25Zm-7.49-35.51-3.06-45.7-2.21,42.65Z"/></g></g></g></svg>